# xmcd
#
# Track frame offsets: 
#        150
#        12440
#        25792
#        37812
#        52635
#        66297
#        75942
#        92457
#        114300
#        127062
#        141900
#        158585
#        172505
#        183480
#        196740
#        212045
#        230485
#        243330
#        257102
#        276892
#
# Disc length: 3884 seconds
#
# Revision: 2
# Processed by: cddbd v1.5.2PL0 Copyright (c) Steve Scherf et al.
# Submitted via: ExactAudioCopyFreeDBPlugin 1.0
#
DISCID=f70f2a14
DTITLE=Glen Campbell - Best Now: Glen Campbell
DYEAR=1991
DGENRE=Country
TTITLE0=By The Time I Get To Phoenix 恋はフェニックス
TTITLE1=Gentle On My Mind
TTITLE2=Galveston
TTITLE3=Houston
TTITLE4=Honey Come Back
TTITLE5=Try A Little Kindness
TTITLE6=If You Go Away 行かないで
TTITLE7=McArthur Park
TTITLE8=Rose Garden
TTITLE9=Your Cheatin' Heart 偽りの心
TTITLE10=Yesterday, When I Was Young 帰り来ぬ青春
TTITLE11=Wichita Lineman
TTITLE12=It's Only Make Believe 思わせぶり
TTITLE13=Where's The Playground, Susie 悲しきスージー
TTITLE14=Bridge Over Troubled Water 明日に架ける橋
TTITLE15=My Way
TTITLE16=I Knew Jesus (Before He Was A Star)
TTITLE17=Where Do I Begin (Love Story) ある愛の詩
TTITLE18=Amazing Grace 至上の愛
TTITLE19=Rhinestone Cowboy
EXTD=
EXTT0=
EXTT1=
EXTT2=
EXTT3=
EXTT4=
EXTT5=
EXTT6=
EXTT7=
EXTT8=
EXTT9=
EXTT10=
EXTT11=
EXTT12=
EXTT13=
EXTT14=
EXTT15=
EXTT16=
EXTT17=
EXTT18=
EXTT19=
PLAYORDER=
